<svg xmlns="http://www.w3.org/2000/svg" xmlns:xlink="http://www.w3.org/1999/xlink" id="Layer_1" x="0px" y="0px" viewBox="0 0 256 256" style="enable-background:new 0 0 256 256;" xml:space="preserve" width="512" height="512">
<style type="text/css">
	.st0{fill:#6DCC6D;}
	.st1{fill:#60BAE2;}
	.st2{fill:#FFCD29;}
	.st3{fill:#F45D64;}
	.st4{fill:#231F20;}
</style>
<g id="Layer_9">
	<path class="st0" d="M184.1,15.8c-1-0.9-2.5-0.8-3.4,0.2c-0.2,0.2-0.4,0.5-0.5,0.8c-2.1,5.8-7.5,19.1-18.6,37.4   c-13,21.4-1.3,36.1,5.1,42c2.2,2,5.2,2.7,8.1,1.8c6.7-2.1,19.2-8.3,24.9-26.2C209.3,42.1,191.3,22.3,184.1,15.8z"></path>
	<path class="st0" d="M180.8,114.8c-15.6,3.5-27.8,14.8-34.3,29.6c12.2,10.7,28,15.7,43.7,12.2s27.8-14.8,34.3-29.6   C212.2,116.3,196.4,111.3,180.8,114.8z"></path>
	<path class="st0" d="M116.6,104.9c7.4,14.2,21.4,23,37.5,25.5c7.2-14.6,7.9-31.1,0.5-45.3s-21.4-23-37.5-25.5   C109.9,74.2,109.2,90.7,116.6,104.9z"></path>
	<path class="st0" d="M151.9,165.3c-16.4,0.2-30.9,8.8-40.5,22.3c9.9,13.3,24.6,21.6,41,21.5s30.9-8.8,40.5-22.3   C182.9,173.5,168.2,165.1,151.9,165.3z"></path>
	<path class="st0" d="M115.1,209.7c-16.1-2.8-32,3.1-43.9,14.6c7.3,14.8,20.3,25.7,36.4,28.5s32-3.1,43.9-14.6   C144.2,223.4,131.2,212.5,115.1,209.7z"></path>
	<path class="st0" d="M88.9,142.9c5.3,15.5,18.2,26.5,34,31.4c9.4-13.6,12.7-30.2,7.3-45.7s-18.2-26.5-34-31.4   C86.8,110.8,83.5,127.4,88.9,142.9z"></path>
	<path class="st0" d="M51.8,175.7c5.7,16.4,19.3,28.2,36.1,33.4c10-14.5,13.5-32.1,7.8-48.6s-19.3-28.2-36.2-33.4   C49.6,141.6,46.1,159.2,51.8,175.7z"></path>
	<path class="st1" d="M158.4,4.3h-1.8V2.5c0-1.4-1.1-2.5-2.5-2.5s-2.5,1.1-2.5,2.5v1.8h-1.8c-1.4,0-2.5,1.1-2.5,2.5   c0,1.4,1.1,2.5,2.5,2.5c0,0,0,0,0,0h1.8v1.8c0,1.4,1.1,2.5,2.5,2.5s2.5-1.1,2.5-2.5V9.3h1.8c1.4,0,2.5-1.1,2.5-2.5   S159.8,4.3,158.4,4.3z"></path>
	<path class="st0" d="M138,27.2c0-0.2-0.1-0.3-0.1-0.5c-0.1-0.1-0.1-0.3-0.2-0.4c-0.1-0.1-0.2-0.3-0.3-0.4c-1-0.9-2.5-0.9-3.5,0   c-0.1,0.1-0.2,0.2-0.3,0.4c-0.2,0.3-0.3,0.6-0.4,0.9c-0.1,0.3-0.1,0.7,0,1c0,0.2,0.1,0.3,0.1,0.5c0.1,0.2,0.1,0.3,0.2,0.4   c0.1,0.1,0.2,0.3,0.3,0.4c1,1,2.5,1,3.5,0c0,0,0,0,0,0c0.1-0.1,0.2-0.2,0.3-0.4c0.1-0.1,0.2-0.3,0.2-0.4c0.1-0.1,0.1-0.3,0.1-0.5   C138.1,27.9,138.1,27.5,138,27.2z"></path>
	<path class="st2" d="M208.8,167.6c0-0.2-0.1-0.3-0.1-0.5c-0.1-0.1-0.1-0.3-0.2-0.4c-0.1-0.1-0.2-0.3-0.3-0.4c-1-0.9-2.5-0.9-3.5,0   c-0.1,0.1-0.2,0.2-0.3,0.4c-0.2,0.3-0.3,0.6-0.4,0.9c-0.1,0.3-0.1,0.7,0,1c0,0.2,0.1,0.3,0.1,0.5c0.1,0.2,0.1,0.3,0.2,0.4   c0.1,0.1,0.2,0.3,0.3,0.4c1,1,2.5,1,3.5,0c0,0,0,0,0,0c0.1-0.1,0.2-0.2,0.3-0.4c0.1-0.1,0.2-0.3,0.2-0.4c0.1-0.1,0.1-0.3,0.1-0.5   C208.8,168.2,208.8,167.9,208.8,167.6z"></path>
	<path class="st3" d="M225.4,91.5c-4.1-0.8-7.2-4-8-8c0-0.1-0.1-0.2-0.2-0.2c-0.1,0-0.1,0.1-0.2,0.2c-0.8,4.1-4,7.2-8,8   c-0.1,0-0.2,0.1-0.2,0.2c0,0.1,0.1,0.1,0.2,0.2c4.1,0.8,7.2,4,8,8c0,0.1,0.1,0.2,0.2,0.2c0.1,0,0.1-0.1,0.2-0.2c0.8-4.1,4-7.2,8-8   c0.1,0,0.2-0.1,0.2-0.2C225.5,91.6,225.5,91.5,225.4,91.5z"></path>
	<path class="st4" d="M172.5,100.8c-2.7,0-5.4-1-7.4-2.8c-6.4-5.8-19.7-21.9-5.6-45.1c10.9-17.9,16.2-30.8,18.4-37   c0.9-2.5,3.7-3.9,6.2-2.9c0.6,0.2,1.1,0.5,1.6,1l0,0c8.2,7.4,26.2,27.8,16.3,58.6c-6,18.9-19.2,25.5-26.6,27.8   C174.6,100.7,173.5,100.8,172.5,100.8z M182.6,17.8c-2.3,6.3-7.8,19.6-18.8,37.7c-11.7,19.3-2.1,32.6,4.7,38.8   c1.5,1.4,3.7,1.8,5.6,1.3c6.4-2,17.9-7.8,23.3-24.5C206.3,43.2,190.1,24.6,182.6,17.8L182.6,17.8z M182.5,17.7L182.5,17.7z"></path>
	<path class="st4" d="M180.1,160.2c-12.5,0-24.9-4.8-35.3-13.9c-0.8-0.7-1.1-1.9-0.6-2.9c7.1-16.2,20.2-27.5,36-31.1   s32.5,1.1,45.8,12.7c0.8,0.7,1.1,1.9,0.6,2.9c-7.1,16.2-20.2,27.5-36,31.1C187.2,159.8,183.7,160.2,180.1,160.2z M149.5,143.8   c11.8,9.7,26.3,13.5,40,10.4s25.2-12.7,31.8-26.5c-11.8-9.7-26.3-13.5-40-10.4l-0.5-2.4l0.5,2.4   C167.6,120.3,156.1,129.9,149.5,143.8L149.5,143.8z"></path>
	<path class="st4" d="M154.1,132.9c-0.1,0-0.3,0-0.4,0c-17.5-2.6-31.8-12.4-39.3-26.8s-7.3-31.7,0.5-47.6c0.5-1,1.5-1.5,2.6-1.4   c17.5,2.6,31.8,12.4,39.3,26.8s7.3,31.7-0.5,47.6C155.9,132.4,155,132.9,154.1,132.9z M118.5,62.4c-6.3,13.9-6.2,28.9,0.3,41.4   s18.8,21.1,33.8,23.8c6.3-13.9,6.2-28.9-0.3-41.4S133.6,65.2,118.5,62.4L118.5,62.4z"></path>
	<path class="st4" d="M151.8,211.5c-16.4,0-31.8-8.2-42.5-22.5c-0.7-0.9-0.7-2.1,0-3c10.5-14.7,26-23.2,42.5-23.3l0,0h0.5   c16.4,0,31.8,8.2,42.5,22.5c0.7,0.9,0.7,2.1,0,3c-10.5,14.7-26,23.2-42.5,23.3H151.8z M114.5,187.5c9.8,12.2,23.4,19.1,37.8,19   c14.4-0.1,27.9-7.3,37.4-19.7c-9.8-12.2-23.5-19.1-37.8-19l0,0C137.5,167.9,124,175.1,114.5,187.5L114.5,187.5z"></path>
	<path class="st4" d="M115.6,256c-2.8,0-5.6-0.2-8.4-0.7c-16.3-2.8-30.2-13.7-38.2-29.9c-0.5-1-0.3-2.2,0.5-2.9   c13-12.5,29.8-18.1,46.1-15.2l0,0c16.3,2.8,30.2,13.7,38.2,29.9c0.5,1,0.3,2.2-0.5,2.9C142.5,250.4,129.1,256,115.6,256z    M74.3,224.8c7.4,13.8,19.6,23.1,33.8,25.5s28.8-2.1,40.4-12.6c-7.4-13.8-19.6-23.1-33.8-25.5S85.9,214.3,74.3,224.8L74.3,224.8z"></path>
	<path class="st4" d="M122.9,176.7c-0.2,0-0.5,0-0.7-0.1c-17.2-5.3-30.2-17.3-35.6-32.9s-2.6-33.1,7.7-47.9c0.6-0.9,1.7-1.3,2.8-1   c17.2,5.3,30.2,17.3,35.6,32.9s2.6,33.1-7.7,47.9C124.5,176.3,123.7,176.7,122.9,176.7z M97.2,100.1c-8.5,13.1-10.7,28.3-6,41.9   s15.8,24.2,30.6,29.2c8.5-13.1,10.7-28.3,6-41.9S112.1,105.2,97.2,100.1z"></path>
	<path class="st4" d="M88,211.5c-0.2,0-0.5,0-0.7-0.1c-18.3-5.6-32-18.3-37.8-34.9l0,0c-5.7-16.6-2.8-35.1,8.1-50.8   c0.6-0.9,1.7-1.3,2.8-1c18.3,5.6,32,18.3,37.8,34.9s2.8,35.1-8.1,50.8C89.6,211.1,88.8,211.5,88,211.5z M54.2,174.8   c5,14.5,16.9,25.8,32.8,31.2c9.1-14,11.5-30.3,6.5-44.8s-16.9-25.8-32.8-31.2C51.5,144.1,49.2,160.3,54.2,174.8L54.2,174.8z"></path>
	<path class="st4" d="M31.6,252.2c-1.4,0-2.5-1.1-2.5-2.5c0-0.9,0.5-1.7,1.3-2.2c25.5-14.6,49.1-32.4,70-53   c28.4-28,51.3-61,67.5-97.5c0.5-1.3,2-1.9,3.3-1.3c1.3,0.5,1.9,2,1.3,3.3c0,0,0,0.1,0,0.1c-16.4,37-39.7,70.6-68.5,99   c-21.2,21-45.1,39-71,53.8C32.4,252.1,32,252.2,31.6,252.2z"></path>
	<path class="st4" d="M154.1,132.9c-1.2,0-2.2-0.8-2.5-2c-4.9-24.9-25.1-52.5-25.3-52.8c-0.8-1.1-0.6-2.7,0.5-3.5   c1.1-0.8,2.7-0.6,3.5,0.5c0.9,1.2,21.1,28.8,26.2,54.8c0.3,1.4-0.6,2.7-2,2.9C154.4,132.9,154.2,132.9,154.1,132.9L154.1,132.9z"></path>
	<path class="st4" d="M145,108.7c-0.2,0-0.4,0-0.6-0.1l-13.9-3.5c-1.3-0.3-2.2-1.7-1.8-3s1.7-2.2,3-1.8l13.9,3.5   c1.3,0.3,2.2,1.7,1.8,3C147.1,107.9,146.1,108.7,145,108.7L145,108.7z"></path>
	<path class="st4" d="M138.1,94.2c-1.4,0-2.5-1.1-2.5-2.5c0-0.3,0.1-0.7,0.2-1l3.1-7.4c0.5-1.3,2-1.9,3.3-1.3s1.9,2,1.3,3.3l0,0   l-3.1,7.4C140,93.6,139.1,94.2,138.1,94.2z"></path>
	<path class="st4" d="M148,146.9c-1.4,0-2.5-1.1-2.5-2.5c0-1,0.5-1.8,1.4-2.2c23.7-11.7,58-12.4,59.4-12.4c1.4,0,2.5,1.1,2.5,2.5   c0,1.4-1.1,2.5-2.5,2.5c-0.3,0-34.6,0.7-57.3,11.9C148.7,146.8,148.4,146.9,148,146.9z"></path>
	<path class="st4" d="M183.9,148.5c-0.6,0-1.1-0.2-1.6-0.5l-11.2-9c-1-0.9-1.2-2.5-0.3-3.5c0.9-1,2.3-1.2,3.4-0.4l11.2,9   c1.1,0.9,1.3,2.4,0.4,3.5C185.4,148.1,184.7,148.5,183.9,148.5L183.9,148.5z"></path>
	<path class="st4" d="M188.5,136.2c-1.4,0-2.5-1.1-2.5-2.5c0-0.4,0.1-0.9,0.3-1.2l4-7c0.7-1.2,2.2-1.6,3.4-0.9   c1.2,0.7,1.6,2.2,0.9,3.4l0,0l-4,7C190.2,135.7,189.4,136.2,188.5,136.2z"></path>
	<path class="st4" d="M113.7,191c-1.4,0-2.5-1.1-2.5-2.5c0-1.1,0.7-2.1,1.8-2.4c25.3-7.8,59.2-2.9,60.6-2.7c1.4,0.2,2.3,1.5,2.1,2.9   c-0.2,1.3-1.5,2.3-2.8,2.1c-0.3-0.1-34.2-4.9-58.4,2.6C114.2,191,114,191,113.7,191z"></path>
	<path class="st4" d="M149,198.3c-0.7,0-1.4-0.3-1.9-0.8l-9.6-10.6c-0.9-1-0.8-2.6,0.2-3.5c1-0.9,2.6-0.8,3.5,0.2l9.6,10.6   c0.9,1,0.8,2.6-0.2,3.5C150.2,198,149.6,198.3,149,198.3L149,198.3z"></path>
	<path class="st4" d="M155.4,186.9c-1.4,0-2.5-1.1-2.5-2.5c0-0.6,0.2-1.1,0.6-1.6l5-6.3c0.9-1.1,2.4-1.2,3.5-0.4s1.2,2.4,0.4,3.5   l-5,6.3C156.9,186.5,156.2,186.9,155.4,186.9z"></path>
	<path class="st4" d="M132.3,236.3c-0.3,0-0.6,0-0.8-0.1c-0.3-0.1-32.6-11.4-57.8-8.8c-1.4,0.1-2.6-0.9-2.7-2.2   c-0.1-1.4,0.9-2.6,2.2-2.7c26.3-2.7,58.7,8.6,60,9.1c1.3,0.5,2,1.9,1.5,3.2C134.3,235.6,133.4,236.3,132.3,236.3L132.3,236.3z"></path>
	<path class="st4" d="M106.6,241.3c-0.9,0-1.7-0.5-2.1-1.2l-7.4-12.3c-0.7-1.2-0.4-2.7,0.8-3.4s2.7-0.4,3.4,0.8c0,0,0,0,0,0.1   l7.4,12.3c0.7,1.2,0.3,2.7-0.9,3.4C107.5,241.2,107,241.3,106.6,241.3L106.6,241.3z"></path>
	<path class="st4" d="M115.1,231.4c-1.4,0-2.5-1.1-2.5-2.5c0-0.7,0.3-1.4,0.9-1.9l6.1-5.2c1.1-0.9,2.6-0.8,3.5,0.3   c0.9,1.1,0.8,2.6-0.3,3.5l-6.1,5.2C116.3,231.2,115.7,231.4,115.1,231.4z"></path>
	<path class="st4" d="M123.2,176.3c-1.3,0-2.4-1-2.5-2.3c-2.4-25.2-19.9-54.7-20-55c-0.7-1.2-0.3-2.7,0.9-3.4   c1.2-0.7,2.7-0.3,3.4,0.9c0.7,1.2,18.2,30.7,20.7,57.1c0.1,1.4-0.9,2.6-2.2,2.7C123.3,176.3,123.3,176.3,123.2,176.3z"></path>
	<path class="st4" d="M116.5,151.4c-0.3,0-0.6,0-0.8-0.1l-13.5-4.8c-1.3-0.5-2-1.9-1.5-3.2c0.5-1.3,1.9-1.9,3.2-1.5l13.5,4.8   c1.3,0.5,2,1.9,1.5,3.2C118.5,150.7,117.5,151.4,116.5,151.4z"></path>
	<path class="st4" d="M111,136.2c-1.4,0-2.5-1.1-2.5-2.5c0-0.4,0.1-0.8,0.3-1.2l3.8-7c0.7-1.2,2.2-1.7,3.4-1s1.7,2.2,1,3.4l-3.8,7   C112.8,135.8,111.9,136.3,111,136.2z"></path>
	<path class="st4" d="M87,210.1c-1.3,0-2.4-1-2.5-2.3c-1.6-25.3-18-55.3-18.2-55.6c-0.7-1.2-0.2-2.7,1-3.4s2.7-0.2,3.4,1   c0.7,1.3,17.2,31.3,18.8,57.7c0.1,1.4-1,2.6-2.3,2.7c0,0,0,0,0,0C87.1,210,87,210.1,87,210.1z"></path>
	<path class="st4" d="M81.1,184.9c-0.3,0-0.6-0.1-0.9-0.2l-13.3-5.3c-1.3-0.5-1.9-2-1.4-3.2s2-1.9,3.2-1.4l13.3,5.3   c1.3,0.5,1.9,2,1.4,3.2C83.1,184.3,82.1,184.9,81.1,184.9z"></path>
	<path class="st4" d="M76.2,169.6c-1.4,0-2.5-1.1-2.5-2.5c0-0.4,0.1-0.9,0.3-1.3l4.1-6.9c0.7-1.2,2.2-1.6,3.4-0.9   c1.2,0.7,1.6,2.2,0.9,3.4l-4.1,6.9C77.9,169.1,77,169.6,76.2,169.6z"></path>
	<path class="st4" d="M170.1,99.7c-1.4,0-2.5-1.1-2.5-2.5c0-0.3,0.1-0.6,0.2-0.9c5.9-15.4,9.6-34.3,9.6-34.5c0.3-1.4,1.6-2.2,3-1.9   c1.3,0.3,2.2,1.6,1.9,2.9c-0.2,0.8-3.9,19.5-9.9,35.3C172.1,99,171.1,99.7,170.1,99.7z"></path>
	<path class="st4" d="M175.9,81.3c-1.2,0-2.3-0.9-2.5-2.1c-0.5-3.8-2.3-7.4-5-10.1c-1-0.9-1.1-2.5-0.2-3.5c0.9-1,2.5-1.1,3.5-0.2   c3.6,3.5,5.9,8.2,6.6,13.2c0.2,1.4-0.8,2.6-2.1,2.8c0,0,0,0,0,0C176.2,81.3,176.1,81.3,175.9,81.3z"></path>
</g>
</svg>