<svg xmlns="http://www.w3.org/2000/svg" xmlns:xlink="http://www.w3.org/1999/xlink" xmlns:svgjs="http://svgjs.com/svgjs" width="512" height="512" x="0" y="0" viewBox="0 0 512.003 512.003" style="enable-background:new 0 0 512 512" xml:space="preserve" class=""><g><g xmlns="http://www.w3.org/2000/svg"><path d="m482.001 497.001v-182.442l-103.25 29.5v-29.5l-105.71 30.202-10.54-140.54v-52.22h15v-15h-29.999v-32.238c6.387 1.021 12.904.691 19.509-1.007 6.458 30.272 33.474 52.792 65.28 52.792 18.164 0 35.082-7.165 47.571-19.911 14.475 13.348 33.505 20.865 53.389 20.865 43.423 0 78.75-35.327 78.75-78.75 0-17.981-6.224-35.569-17.525-49.525l-11.657 9.44c9.278 11.457 14.183 25.318 14.183 40.084 0 35.152-28.598 63.75-63.75 63.75-18.424 0-35.943-7.973-48.065-21.874l-6.059-6.948-5.57 7.346c-9.888 13.042-24.928 20.521-41.266 20.521-27.201 0-49.882-21.239-51.636-48.353l-.693-10.717-9.823 4.342c-7.949 3.514-15.4 4.394-22.637 2.66v-12.478h-15v60h-15.003v-45.356h-15v13.709c-8.729-3.096-15-11.432-15-21.21 0-6.031 2.391-11.723 6.731-16.026 4.163-4.127 9.59-6.417 15.324-6.474h.477l.064-15c-.203-.001-.406-.001-.611 0h-66.755l-.259 7.231c-.386 10.757-7.315 28.5-29.971 32.707v-14.142h-15v64.562h-14.999v-45.357h-15v13.709c-8.729-3.096-15-11.432-15-21.21 0-6.031 2.391-11.723 6.731-16.026 4.262-4.226 9.84-6.5 15.736-6.474l7.841.068-.281-7.836c-.369-10.285 3.358-20.023 10.494-27.42 7.125-7.385 16.706-11.453 26.978-11.453h135c17.059 0 31.979 11.511 36.285 27.992l2.714 10.389 8.82-6.124c8.679-6.026 18.87-9.211 29.473-9.211 12.276 0 24.181 4.377 33.52 12.327l7.024 5.979 4.42-8.096c11.197-20.512 32.654-33.254 55.996-33.254 14.769 0 28.629 4.904 40.084 14.182l9.441-11.656c-13.954-11.304-31.542-17.528-49.526-17.528-25.957 0-50.025 12.755-64.658 33.782-10.754-6.969-23.368-10.736-36.302-10.736-10.456 0-20.605 2.404-29.812 7.013-8.538-18.086-26.897-30.059-47.479-30.059h-135c-14.38 0-27.794 5.696-37.772 16.038-8.329 8.633-13.34 19.542-14.476 31.272-7.143 1.381-13.746 4.864-19.08 10.153-7.204 7.142-11.171 16.616-11.171 26.678 0 18.11 12.904 33.261 30 36.745v16.113h-30v15h15v52.22l-12.917 172.24 14.958 1.122 7.918-105.582h55.083l16.875 225h-88.833l7.834-104.459-14.958-1.122-7.918 105.581h-30.543v15h512.003v-15zm-15-162.556v162.556h-88.25v-137.342zm-103.249 0v162.556h-79.292l-10.272-136.967zm-94.335 162.556h-88.833l16.875-225h55.083zm-66.916-345h45v45.001h-45zm-.541 60.001h46.083l3.375 44.999h-52.833zm-89.458-60.001v45.001h-45.001v-45.001zm-48.917 105 3.375-44.999h46.084l3.375 44.999zm48.917-120v-35.236c26.335-3.782 40.657-21.81 44.144-40.121h23.375c-4.881 6.478-7.52 14.293-7.52 22.5 0 18.109 12.904 33.261 30 36.745v16.113h-30v15h15v52.22l-10.709 142.78h-38.582l-10.708-142.78v-52.22h15v-15h-30zm26.833 225h36.332l-10.125 135h-16.082z" fill="#b2beb5" data-original="#000000" style="" class=""></path><path d="m428.439 225.272c-.072-11.007-3.973-21.712-11.199-30.275-9.012-10.68-22.203-16.805-36.191-16.805-26.131 0-47.39 21.259-47.39 47.39 0 15.078 6.931 28.9 19.016 37.924 9.854 7.358 21.767 10.548 33.639 9.193 4.511 15.753 19.004 27.146 36.085 27.146 20.699 0 37.539-16.839 37.539-37.538 0-10.501-4.219-20.232-11.88-27.399-5.458-5.108-12.328-8.437-19.619-9.636zm-6.039 59.573c-12.022 0-21.91-9.395-22.509-21.389l-.476-9.527-9.146 2.71c-9.88 2.93-20.312 1.05-28.62-5.153-8.255-6.164-12.99-15.606-12.99-25.905 0-17.86 14.53-32.39 32.39-32.39 9.559 0 18.571 4.184 24.727 11.479 6.187 7.331 8.81 16.956 7.197 26.408l-1.6 9.377 9.491-.632c6.31-.42 12.333 1.724 16.946 6.039 4.596 4.3 7.127 10.141 7.127 16.446.002 12.427-10.109 22.537-22.537 22.537z" fill="#b2beb5" data-original="#000000" style="" class=""></path><path d="m333.752 384.001h15v98h-15z" fill="#b2beb5" data-original="#000000" style="" class=""></path><path d="m407.002 384.001h15v98h-15z" fill="#b2beb5" data-original="#000000" style="" class=""></path><path d="m437.002 384.001h15v98h-15z" fill="#b2beb5" data-original="#000000" style="" class=""></path><path d="m303.752 384.001h15v98h-15z" fill="#b2beb5" data-original="#000000" style="" class=""></path><path d="m448.251 48.752h15v15h-15z" fill="#b2beb5" data-original="#000000" style="" class=""></path><path d="m82.501 167.001h15v15h-15z" fill="#b2beb5" data-original="#000000" style="" class=""></path><path d="m217.501 167.001h15v15h-15z" fill="#b2beb5" data-original="#000000" style="" class=""></path></g></g></svg>